<svg xmlns="http://www.w3.org/2000/svg" viewBox="0 0 140 44" fill="none" role="img" aria-label="Smohix">
  <g stroke="#ffffff" stroke-width="1.2" stroke-linecap="square">
    <path d="M3 38V6H102" />
    <path d="M3 38H137V17" />
  </g>
  <g stroke="#ffffff" stroke-width="1.45" stroke-linecap="round" stroke-linejoin="round">
    <path d="M13 26.5C13 22.8 15.6 21 18.8 21C21.6 21 23.4 22.4 23.4 24.2C23.4 25.8 22 26.8 20 27.1C22.6 27.5 24.2 29 24.2 31.2C24.2 34.2 21.4 36 17.8 36C14 36 11.6 33.6 11.6 30.2C11.6 28.2 12.6 26.8 14 26.2" />
    <path d="M29 36V24.2M29 24.2C29 22.2 30.8 20.8 32.8 20.8C34.8 20.8 36 21.8 36 23.6V36M36 23.6C36 21.6 37.8 20.8 39.8 20.8C41.8 20.8 43 21.8 43 23.6V36" />
    <path d="M48.5 28.2A4.8 4.8 0 1 0 48.6 28.2" />
    <path d="M56 36V21.2M56 27.4C56 24.6 58.2 22.6 61.2 22.6C64.2 22.6 66.4 24.6 66.4 27.4V36" />
    <path d="M70 36V25.2M70 21.6V20.4" />
    <path d="M75 36L81.2 24.2M81.2 36L75 24.2" />
  </g>
</svg>
